<?xml version="1.0" encoding="utf-8"?>
<!-- Generator: Adobe Illustrator 16.0.0, SVG Export Plug-In . SVG Version: 6.00 Build 0)  -->
<!DOCTYPE svg PUBLIC "-//W3C//DTD SVG 1.1//EN" "http://www.w3.org/Graphics/SVG/1.1/DTD/svg11.dtd">
<svg version="1.1" id="Capa_1" xmlns="http://www.w3.org/2000/svg" xmlns:xlink="http://www.w3.org/1999/xlink" x="0px" y="0px"
	 width="24px" height="24px" viewBox="0 0 24 24" enable-background="new 0 0 24 24" xml:space="preserve">
<path fill="#FFFFFF" d="M6,7C5.447,7,5,7,5,7v13c0,1.104,0.896,2,2,2h10c1.104,0,2-0.896,2-2V7c0,0-0.447,0-1,0H6z M10,19H8v-9h2V19
	z M16,19h-2v-9h2V19z M16.618,4L15,2H9L7.382,4H3v2h5h8h5V4H16.618z"/>
</svg>
