<?xml version="1.0" encoding="utf-8"?>
<!-- Generator: Adobe Illustrator 16.0.0, SVG Export Plug-In . SVG Version: 6.00 Build 0)  -->
<!DOCTYPE svg PUBLIC "-//W3C//DTD SVG 1.1//EN" "http://www.w3.org/Graphics/SVG/1.1/DTD/svg11.dtd">
<svg version="1.1" id="Capa_1" xmlns="http://www.w3.org/2000/svg" xmlns:xlink="http://www.w3.org/1999/xlink" x="0px" y="0px"
	 width="24px" height="24px" viewBox="0 0 24 24" enable-background="new 0 0 24 24" xml:space="preserve">
<path fill="#FFFFFF" d="M8.073,12.194L4.212,8.333c-1.52,1.657-2.096,3.317-2.106,3.351L2,12l0.105,0.316
	C2.127,12.383,4.421,19,12.054,19c0.928,0,1.775-0.102,2.551-0.273L11.86,15.98C9.811,15.88,8.174,14.243,8.073,12.194z M12.054,5
	c-1.855,0-3.375,0.404-4.642,0.998L3.707,2.293L2.293,3.707l18,18l1.414-1.414l-3.298-3.298c2.638-1.953,3.579-4.637,3.593-4.679
	L22.107,12l-0.105-0.316C21.98,11.617,19.688,5,12.054,5z M13.96,12.546c0.187-0.677,0.028-1.439-0.492-1.96
	c-0.52-0.521-1.283-0.679-1.96-0.492L10,8.586C10.602,8.222,11.3,8,12.054,8c2.206,0,4,1.794,4,4c0,0.754-0.223,1.452-0.588,2.053
	L13.96,12.546z"/>
</svg>
